<?xml version="1.0" encoding="UTF-8" standalone="no"?>
<!-- Created with Inkscape (http://www.inkscape.org/) -->

<svg
   width="158.478mm"
   height="158.74828mm"
   viewBox="0 0 158.47799 158.74827"
   version="1.1"
   id="svg5"
   xml:space="preserve"
   inkscape:version="1.2.2 (b0a8486541, 2022-12-01)"
   sodipodi:docname="logo_faviconv5.svg"
   inkscape:export-filename="logo_favicon.svg"
   inkscape:export-xdpi="96"
   inkscape:export-ydpi="96"
   xmlns:inkscape="http://www.inkscape.org/namespaces/inkscape"
   xmlns:sodipodi="http://sodipodi.sourceforge.net/DTD/sodipodi-0.dtd"
   xmlns="http://www.w3.org/2000/svg"
   xmlns:svg="http://www.w3.org/2000/svg"><sodipodi:namedview
     id="namedview7"
     pagecolor="#ffffff"
     bordercolor="#000000"
     borderopacity="0.25"
     inkscape:showpageshadow="2"
     inkscape:pageopacity="0.0"
     inkscape:pagecheckerboard="0"
     inkscape:deskcolor="#d1d1d1"
     inkscape:document-units="mm"
     showgrid="false"
     inkscape:zoom="1"
     inkscape:cx="138.5"
     inkscape:cy="357"
     inkscape:window-width="2552"
     inkscape:window-height="1042"
     inkscape:window-x="2"
     inkscape:window-y="32"
     inkscape:window-maximized="1"
     inkscape:current-layer="layer1" /><defs
     id="defs2" /><g
     inkscape:groupmode="layer"
     id="layer4"
     inkscape:label="Layer 3"
     transform="translate(0.12212372)" /><g
     inkscape:label="Layer 1"
     inkscape:groupmode="layer"
     id="layer1"
     transform="translate(0.12212372)"><g
       id="g18613"
       transform="matrix(0.99145126,0,0,0.99945757,-22.981698,-77.200897)"><path
         style="fill:#800080;fill-opacity:1;fill-rule:nonzero;stroke:none;stroke-width:0.5;stroke-opacity:1"
         d="m 344.49609,568.84277 c -0.5753,10.96309 -0.0812,22.11982 -0.24609,33.15723 0,63 0,126 0,189 1.79773,2.20503 5.82387,0.42785 8.5,1 27.83333,0 55.66666,0 83.5,0 2.20503,-1.79773 0.42785,-5.82388 1,-8.5 0,-71.33334 0,-142.66667 0,-214 -1.79773,-2.20504 -5.82388,-0.42786 -8.5,-1 -27.83334,0 -55.66667,0 -83.5,0 l -0.45516,0.20694 z"
         id="path17971"
         transform="scale(0.26458333)" /><path
         style="fill:#333333;fill-opacity:1;fill-rule:nonzero;stroke:none;stroke-width:0.5;stroke-opacity:1"
         d="m 292.49609,638.84277 c -0.5753,10.96309 -0.0812,22.11982 -0.24609,33.15723 0,22.83333 0,45.66666 0,68.5 1.79773,2.20503 5.82387,0.42785 8.5,1 10.63683,-0.13771 21.39304,0.27559 31.95516,-0.20695 1.26582,-2.61351 0.1866,-6.28139 0.54484,-9.29305 0,-30.83334 0,-61.66667 0,-92.5 -1.79773,-2.20504 -5.82388,-0.42786 -8.5,-1 -10.63683,0.13771 -21.39304,-0.27559 -31.95516,0.20694 z"
         id="path18042"
         transform="scale(0.26458333)" /><path
         style="fill:#333333;fill-opacity:1;fill-rule:nonzero;stroke:none;stroke-width:0.5;stroke-opacity:1"
         d="m 449.99609,639.34277 c -0.5753,10.96309 -0.0812,22.11982 -0.24609,33.15723 0,22.66666 0,45.33333 0,68 1.79773,2.20503 5.82387,0.42785 8.5,1 10.69101,-0.14007 21.50309,0.27868 32.11922,-0.20695 1.25362,-2.61954 0.11587,-6.28801 0.44175,-9.30415 C 490.3853,701.32788 490.18359,670.66398 490.25,640 c -1.79773,-2.20504 -5.82388,-0.42786 -8.5,-1 -10.46982,0.13929 -21.06017,-0.27773 -31.45516,0.20694 z"
         id="path18044"
         transform="scale(0.26458333)" /><path
         style="fill:#4d4d4d;fill-opacity:1;fill-rule:nonzero;stroke:none;stroke-width:0.5;stroke-opacity:1"
         d="m 374.08301,521.88965 c -8.76757,-0.22582 -17.57866,0.83109 -25.78795,4.03859 -24.33744,7.47005 -46.98709,22.82159 -59.74074,45.25415 -10.85702,18.5597 -14.45641,40.57249 -13.46643,61.82933 0.12192,1.43672 0.13224,4.88593 2.46387,3.8955 18.17733,-0.78062 36.47433,-0.24124 54.69824,-0.40722 2.20509,-1.79773 0.42624,-5.82388 0.99769,-8.5 0.15619,-8.35722 -0.32293,-16.79081 0.22987,-25.10034 2.92379,-11.9664 5.84693,-23.93296 8.76951,-35.89966 32.50358,0 65.00716,0 97.51074,0 3.30198,12.79894 6.94845,25.55325 10.03637,38.37988 0.12428,10.17637 -0.30683,20.47236 0.16227,30.57453 2.61305,1.26723 6.28177,0.18708 9.29355,0.54559 14.79876,0.19885 29.68537,-0.43445 44.4248,0.47265 2.58895,0.60645 1.78181,-3.18312 2.00098,-4.73535 0.36487,-22.54667 -4.75309,-45.39736 -15.9541,-65.05664 -10.98633,-19.46339 -29.86426,-33.95975 -51.23145,-40.28222 -11.18569,-3.70953 -22.97474,-4.96722 -34.71546,-4.85307 -9.89648,-0.12532 -19.79452,-0.17302 -29.69176,-0.15572 z"
         id="path18046"
         transform="scale(0.26458333)" /><path
         style="fill:#333333;fill-opacity:1;fill-rule:nonzero;stroke:none;stroke-width:0.13308;stroke-opacity:1"
         d="m 116.43036,153.85791 c -0.0538,18.77843 -0.0488,37.56173 -0.0801,56.34203 -8.59896,0 -17.197916,0 -25.796875,0 -0.0097,-18.63085 -0.01937,-37.2617 -0.02894,-55.89256 -0.679717,-0.76681 -0.695807,1.03557 -0.905716,1.49412 -0.389753,1.81139 -1.114576,3.58194 -0.910736,5.46758 0.03231,11.28271 -0.07059,22.56675 0.06514,33.84862 -0.02432,0.61257 0.08518,1.20896 0.355015,1.74297 0.208,4.66332 0.04875,9.34019 0.102579,14.00864 0.475649,0.59039 1.540899,0.11455 2.248958,0.26774 8.643055,0 17.286115,0 25.929165,0 0.58342,-0.48133 0.1132,-1.55933 0.26459,-2.27585 0,-3.64057 0,-7.28113 0,-10.92169 0.44032,-0.86262 0.99033,-1.7078 0.79399,-2.72585 -0.003,-11.82837 0.017,-23.65828 -10e-4,-35.4857 -0.5547,-1.97692 -0.97499,-4.02329 -1.61307,-5.95724 -0.10819,-0.17771 -0.34838,-0.0569 -0.42298,0.0872 z"
         id="path18048" /><path
         style="fill:#4d4d4d;fill-opacity:1;fill-rule:nonzero;stroke:none;stroke-width:0.134142;stroke-opacity:1"
         d="m 76.359793,197.54509 c -2.098958,0.0655 -4.225014,-0.11814 -6.308815,0.15239 -0.587255,0.37652 0.09947,1.19573 0.07647,1.73481 1.058762,4.49357 2.116693,8.98735 3.174326,13.4812 0.623157,0.46346 1.614934,0.0845 2.383936,0.20767 19.3133,0 38.6266,0 57.9399,0 0.58627,-0.51143 0.43902,-1.58803 0.72744,-2.32512 0.93052,-4.23282 1.89113,-8.45911 2.78464,-12.70014 -0.20603,-0.65575 -1.14097,-0.20807 -1.64122,-0.3678 -5.60828,-0.08 -11.21734,-0.0376 -16.82598,-0.0486 -0.58585,0.48701 -0.11367,1.57772 -0.26569,2.30271 0,3.92814 0,7.85628 0,11.78443 -9.83819,-0.0197 -19.695742,0.051 -29.522085,-0.072 -0.212769,-4.39861 -0.04964,-8.81286 -0.102226,-13.21728 0.341623,-1.16793 -0.864988,-0.95147 -1.594134,-0.93335 -3.608855,2.4e-4 -7.21771,-8.2e-4 -10.826563,0.001 z"
         id="path18050" /><path
         style="fill:#666666;fill-opacity:1;fill-rule:nonzero;stroke:none;stroke-width:0.5;stroke-opacity:1"
         d="m 278.5332,807.84277 c -0.0516,3.51017 2.19728,6.96168 3.01877,10.44859 2.75071,7.45297 4.75407,15.33325 7.97652,22.51712 5.29868,5.02408 10.00788,10.77249 15.6802,15.33803 14.29947,8.94916 28.22583,18.67169 43.29033,26.27732 28.50205,-0.0526 57.04212,0.20666 85.52051,-0.04 15.22843,-7.7659 29.51161,-17.3057 43.64747,-26.82656 4.88333,-5.5835 10.35846,-10.78328 14.87094,-16.60777 3.61469,-10.17248 7.89242,-20.24391 11.10164,-30.48301 -1.33796,-1.82234 -4.59562,-0.39306 -6.67472,-0.8794 -72.55914,-0.14161 -145.11851,-0.0675 -217.67775,-0.087 l -0.45516,0.20694 z"
         id="path18052"
         transform="scale(0.26458333)" /><path
         style="fill:#1a1a1a;fill-opacity:1;fill-rule:nonzero;stroke:none;stroke-width:0.13657;stroke-opacity:1"
         d="m 130.54115,194.6354 c -0.22704,0.55913 0.36026,1.82066 -0.29905,1.95001 -3.86701,0.0522 -7.74835,-0.11508 -11.60695,0.12506 -0.56511,0.25503 0.0694,0.72678 0.4745,0.5879 5.4713,0.14436 10.94657,0.0521 16.41948,0.0777 0.76899,-0.48902 -0.65433,-0.83258 -1.03827,-1.11221 -1.2646,-0.57772 -2.47072,-1.3674 -3.78614,-1.78477 l -0.0988,0.0944 z"
         id="path18054" /><path
         style="fill:#4d4d4d;fill-opacity:1;fill-rule:nonzero;stroke:none;stroke-width:0.132461;stroke-opacity:1"
         d="m 132.74797,86.912265 c -0.90799,0.09753 -1.92323,-0.169513 -2.77735,0.205161 -0.33391,0.641782 0.019,1.480791 -0.0765,2.184808 0.52371,15.058346 1.033,30.118726 1.70047,45.171096 0.30411,3.93795 0.0317,7.90623 0.41238,11.83963 0.46514,1.42964 1.46553,2.62285 2.01161,4.02773 2.67007,5.83309 3.30456,12.34167 3.04648,18.67959 0.0729,0.37073 -0.44056,0.26845 -0.47439,0.60719 -0.99944,0.005 -2.10834,0.20928 -3.07346,-0.13936 -0.81447,-0.72237 -2.03233,-0.45021 -2.99958,-0.42356 -0.33491,0.69326 -0.0494,1.66621 -0.14415,2.46509 0,6.76417 0,13.52833 0,20.2925 0.47565,0.58491 1.54089,0.11349 2.24895,0.26526 2.28487,-0.0623 4.59195,0.1282 6.86444,-0.11994 0.62667,-0.29274 0.34926,-1.22542 0.56999,-1.76435 1.19073,-6.99353 0.99934,-14.10879 1.02637,-21.17428 -0.15433,-11.59598 -0.75919,-23.18044 -1.16297,-34.76937 -0.62416,-15.5558 -1.17363,-31.11541 -1.87066,-46.667804 0.16304,-1.059346 -1.13059,-0.578634 -1.7478,-0.680428 -1.1846,1.03e-4 -2.3692,-5.31e-4 -3.55379,0.0011 z"
         id="path18056" /><path
         style="fill:#666666;fill-opacity:1;fill-rule:nonzero;stroke:none;stroke-width:0.5;stroke-opacity:1"
         d="m 533.77246,568.27637 c -0.37806,8.10977 0.56364,16.4265 0.6758,24.61808 0.70199,19.01515 0.82805,38.06913 0.80174,57.1075 1.14994,1.87122 4.23211,0.86113 6.23926,0.79981 2.3202,-1.07323 0.94784,-4.36813 1.59472,-6.36178 2.03642,-25.03262 3.24398,-50.34174 -0.0928,-75.31889 -1.90411,-1.96863 -5.60408,-0.52596 -8.20053,-1.14847 -0.37491,-0.0995 -0.67618,0.21738 -1.01822,0.30375 z"
         id="path18060"
         transform="scale(0.26458333)" /><path
         style="fill:#666666;fill-opacity:1;fill-rule:nonzero;stroke:none;stroke-width:0.5;stroke-opacity:1"
         d="m 289.53516,495.84277 c -3.53561,10.02281 -2.59312,20.91734 -3.31796,31.3721 -0.16288,7.28203 -0.69405,14.64987 -0.87364,21.86579 2.43556,1.42609 4.30618,-3.49132 6.3919,-4.75221 10.30299,-11.48722 23.49321,-20.1926 37.71503,-25.90587 11.86537,-4.76262 24.41407,-8.17204 37.15613,-9.43529 17.3749,-0.33712 34.86825,-0.46132 52.17658,0.14454 13.21213,1.06728 26.41749,4.99556 38.60059,10.47461 14.44689,6.59707 26.99973,16.66641 37.18554,28.80957 3.14077,0.71968 1.09136,-4.26564 1.40711,-6.22701 -0.92046,-13.85464 -0.30339,-27.92023 -2.42957,-41.69681 -0.57057,-2.28804 -1.23177,-5.97691 -4.45703,-4.99219 -66.26693,0 -132.53385,0 -198.80078,0 l -0.45516,0.20694 z"
         id="path18062"
         transform="scale(0.26458333)" /><path
         style="fill:#4d4d4d;fill-opacity:1;fill-rule:nonzero;stroke:none;stroke-width:0.5;stroke-opacity:1"
         d="m 276.42187,299 c -5.08391,0.2378 -10.37271,-0.47011 -15.33203,0.34277 -1.23013,11.17716 -0.99815,22.5917 -1.62497,33.86035 -3.31435,94.20751 -6.91639,188.40678 -9.76758,282.62936 -0.6049,28.92348 -0.87448,57.89588 0.68845,86.79349 0.69518,7.0857 0.80956,14.47048 3.21289,21.21289 2.5341,1.91659 6.21327,0.72371 9.17285,1.14179 8.79783,-0.0932 17.71107,0.28269 26.43368,-0.1876 1.26582,-2.61351 0.1866,-6.28139 0.54484,-9.29305 0,-25.33334 0,-50.66667 0,-76 -1.44062,-2.0964 -4.95975,-0.55463 -7.28906,-0.9834 -3.08036,-0.46627 -5.05255,2.42455 -7.4209,3.4834 -2.91178,-0.15475 -6.10451,0.30308 -8.87695,-0.26953 -0.29129,-1.32626 -2.2895,-0.78533 -2.07325,-2.31446 -2.97242,-28.99784 2.98777,-59.31433 18.66992,-84.13379 1.88969,-45.12042 3.27301,-90.3218 4.96598,-135.47347 1.42205,-39.92526 2.86343,-79.84986 4.27328,-119.77555 -1.73947,-2.26427 -5.82918,-0.45306 -8.49902,-1.03368 -2.35938,1.6e-4 -4.71875,3.2e-4 -7.07813,4.8e-4 z"
         id="path18064"
         transform="scale(0.26458333)" /><path
         style="fill:#4d4d4d;fill-opacity:1;fill-rule:nonzero;stroke:none;stroke-width:0.5;stroke-opacity:1"
         d="m 387.0166,511.0039 c -12.98853,-0.0471 -26.187,-0.10959 -38.74738,3.68825 -24.16382,5.90121 -47.25378,19.03682 -61.70208,39.6925 -11.97609,16.96579 -18.53972,37.47309 -20.18016,58.08164 -0.41922,8.69728 -1.25044,17.48865 -0.0569,26.15773 1.25608,1.36251 6.40857,1.79745 6.66201,-0.63861 -0.6058,-16.3522 -0.21023,-33.10631 5.00843,-48.57786 7.10586,-23.72341 24.12498,-43.79398 45.76278,-55.56922 12.09024,-6.72131 25.37779,-11.3559 38.86753,-14.06179 19.72659,0.14447 39.67088,-1.1065 59.22464,0.94123 20.04444,2.99528 39.93233,11.15558 54.57129,25.56641 20.81828,20.12488 29.97294,49.16867 31.46776,77.48374 0.49818,5.13877 -0.0993,10.49461 0.86524,15.50454 2.04993,-0.0756 6.38403,1.4869 6.93587,-1.23203 0.88966,-22.7125 -1.34328,-46.07018 -10.72102,-67.01992 -2.53988,-5.74232 -5.65752,-11.38459 -9.22657,-16.43555 -16.54521,-24.51629 -44.97741,-38.91915 -73.81083,-42.8528 -11.58006,-1.03139 -23.30246,-0.5796 -34.92061,-0.72826 z"
         id="path18066"
         transform="scale(0.26458333)" /><path
         style="fill:#666666;fill-opacity:1;fill-rule:nonzero;stroke:none;stroke-width:0.5;stroke-opacity:1"
         d="m 243.58984,568.10547 c -3.03464,-0.40487 -6.07113,0.19264 -5.67968,3.94531 -2.51003,16.46496 -1.64237,33.23457 -0.86905,49.80675 0.70477,9.2826 0.8298,18.6766 2.20401,27.87294 1.41537,2.12808 4.74886,1.09879 6.80086,1.06258 1.2887,-2.7712 0.28812,-6.60399 0.69589,-9.77518 0.21473,-24.03355 1.35397,-48.03243 2.00813,-72.05303 -0.67249,-1.97096 -3.61641,-0.51564 -5.16016,-0.85937 z"
         id="path18068"
         transform="scale(0.26458333)" /><path
         style="fill:#1a1a1a;fill-opacity:1;fill-rule:nonzero;stroke:none;stroke-width:0.144949;stroke-opacity:1"
         d="m 76.630035,194.61873 c -1.882422,0.71047 -3.835338,1.37257 -5.63051,2.18664 -0.0295,0.78014 1.656448,0.2298 2.344318,0.38916 5.022063,-0.0223 10.044808,-0.0168 15.066445,-0.0598 0.81239,-0.62192 -0.737531,-0.56705 -1.245483,-0.53259 -3.341797,-0.0203 -6.683645,-0.0343 -10.025467,-0.0516 -0.08216,-0.61437 0.158745,-1.31185 -0.173238,-1.88179 -0.109911,0.0198 -0.227139,-0.0868 -0.336065,-0.05 z"
         id="path18070" /><path
         style="fill:#4d4d4d;fill-opacity:1;fill-rule:nonzero;stroke:none;stroke-width:0.5;stroke-opacity:1"
         d="m 489.86914,299.34277 c -0.31374,8.79986 0.35802,17.78388 0.74317,26.64323 -0.6513,3.48678 1.22511,5.61465 4.77133,4.56081 8.63458,-0.22199 17.3967,0.11984 25.95343,-0.44631 1.18343,-2.66666 -0.0841,-6.31082 0.11241,-9.36818 -0.46504,-7.05392 -0.32162,-14.24814 -1.06297,-21.2175 -2.80842,-1.20727 -6.5984,-0.16821 -9.77518,-0.51482 -6.88319,0.2245 -13.98575,-0.45163 -20.74219,0.34277 z"
         id="path18072"
         transform="scale(0.26458333)" /><path
         style="fill:#4d4d4d;fill-opacity:1;fill-rule:nonzero;stroke:none;stroke-width:0.0483036;stroke-opacity:1"
         d="m 129.44599,100.92404 c -0.28551,0.25116 -0.0989,0.7081 -0.15451,1.05225 -0.0371,9.42016 -0.0625,18.84038 -0.0673,28.26063 0.0794,0.43812 0.56456,0.22979 0.86053,0.3032 0.22851,0.0478 0.60065,0.19244 0.67556,-0.16064 0.0209,-1.00694 -0.0542,-2.02542 -0.0716,-3.03651 -0.27839,-8.72498 -0.57619,-17.44919 -0.86545,-26.17379 -0.0308,-0.20142 -0.19456,-0.30822 -0.37728,-0.24514 z"
         id="path18074" /><path
         style="fill:#4d4d4d;fill-opacity:1;fill-rule:nonzero;stroke:none;stroke-width:0.0481073;stroke-opacity:1"
         d="m 77.261407,97.751977 c -0.279503,0.255518 -0.111967,0.70746 -0.180549,1.050386 -0.375357,10.496417 -0.719474,20.994567 -1.078688,31.491297 -0.04329,0.29808 0.289158,0.46912 0.505492,0.29932 0.194156,0.0644 0.326025,-0.13486 0.526005,-0.0749 0.30076,-0.0443 0.814787,0.15261 0.896069,-0.28113 -0.03898,-8.82941 -0.143089,-17.65842 -0.221845,-26.48753 -0.02077,-1.92054 -0.03418,-3.84127 -0.06509,-5.761638 -0.03429,-0.199062 -0.199829,-0.301901 -0.381394,-0.235805 z"
         id="path18076" /><g
         id="g17607"
         transform="matrix(1.0014153,0,0,0.7960042,-0.14646045,40.105102)"><path
           style="fill:#4d4d4d;fill-opacity:0;stroke:#000000;stroke-width:0.998308;stroke-dasharray:none;stroke-opacity:1"
           d="m 75.180634,134.40568 2.440765,-85.662123 -8.889339,0.03572 -3.019094,106.873283 c 0,0 -0.528668,32.70563 1.351961,35.20476 H 77.0304 v 5.45042 h 11.436317 v -45.79873 l 2.378317,-12.22143 25.237436,0.099 2.61265,12.31146 v 45.6376 h 11.35327 v -5.23317 h 9.91985 c 0,0 1.56599,-9.87989 1.29715,-18.94344 l 0.0601,-16.42688 -3.34089,-106.940149 h -8.79579 l 2.42287,85.627449"
           id="path922"
           sodipodi:nodetypes="ccccccccccccccccccccc" /></g><path
         style="fill:#4d4d4d;fill-opacity:0;stroke:#000000;stroke-width:1;stroke-dasharray:none;stroke-opacity:1"
         d="m 88.464716,168.7052 c 0,0 -14.622828,0 -14.721498,0 l -0.918561,0.83866 h -2.641268"
         id="path924" /><path
         style="fill:#4d4d4d;fill-opacity:0;stroke:#000000;stroke-width:1;stroke-dasharray:none;stroke-opacity:1"
         d="m 76.993582,168.71085 v 23.84109"
         id="path926"
         sodipodi:nodetypes="cc" /><path
         style="fill:#333333;fill-opacity:0;stroke:#000000;stroke-width:1;stroke-dasharray:none;stroke-opacity:1"
         d="M 90.820921,149.79065 V 209.8489 H 116.0503 v -59.99288"
         id="path928" /><path
         style="fill:#4d4d4d;fill-opacity:0;stroke:#000000;stroke-width:0.98503;stroke-dasharray:none;stroke-opacity:1"
         d="m 118.87729,196.4574 -0.63314,1.24061 h 19.24014 l -7.23173,-3.81785"
         id="path930"
         sodipodi:nodetypes="cccc" /><path
         style="fill:#4d4d4d;fill-opacity:0;stroke:#000000;stroke-width:1;stroke-dasharray:none;stroke-opacity:1"
         d="m 88.382654,196.41941 0.605023,0.80446 v 13.8099"
         id="path934" /><path
         style="fill:#4d4d4d;fill-opacity:0;stroke:#000000;stroke-width:0.991182;stroke-dasharray:none;stroke-opacity:1"
         d="m 117.92902,198.16215 v 13.3108 l -29.436622,-0.0329"
         id="path936" /><path
         style="fill:#4d4d4d;fill-opacity:0;stroke:#000000;stroke-width:1;stroke-dasharray:none;stroke-opacity:1"
         d="m 89.017793,197.59673 c -0.187248,0 -19.844924,0 -19.844924,0 l 7.826735,-3.71108"
         id="path938" /><path
         style="fill:#4d4d4d;fill-opacity:0;stroke:#000000;stroke-width:1;stroke-dasharray:none;stroke-opacity:1"
         d="m 69.271342,197.54767 3.795236,15.76342 3.187983,9.27555 3.990025,3.98087 8.07317,5.18501 3.870344,2.08139 h 22.61106 l 4.00448,-2.10733 7.62926,-4.9597 4.07617,-4.42075 3.28584,-8.83093 3.60226,-15.87659"
         id="path940" /><path
         style="fill:#4d4d4d;fill-opacity:0;stroke:#000000;stroke-width:1;stroke-dasharray:none;stroke-opacity:1"
         d="M 73.037336,213.36065 H 133.81108"
         id="path942" /><path
         style="fill:#4d4d4d;fill-opacity:0;stroke:#000000;stroke-width:1;stroke-dasharray:none;stroke-opacity:1"
         d="m 118.65189,168.71657 c 0.2255,0 14.28184,0 14.28184,0 l 0.9965,0.75767 h 2.82079"
         id="path944" /><path
         style="fill:#4d4d4d;fill-opacity:0;stroke:#000000;stroke-width:1;stroke-dasharray:none;stroke-opacity:1"
         d="m 130.0913,192.3433 -0.0472,-23.6509"
         id="path946"
         sodipodi:nodetypes="cc" /><path
         style="fill:#4d4d4d;fill-opacity:0;stroke:#000000;stroke-width:1;stroke-dasharray:none;stroke-opacity:1"
         d="m 134.10175,169.53564 c 0,0 2.76818,-28.90358 -24.33224,-31.71374 l -12.821195,-0.0955 c 0,0 -26.904576,2.77202 -24.347224,31.76729"
         id="path948" /><path
         style="fill:#4d4d4d;fill-opacity:0;stroke:#000000;stroke-width:1;stroke-dasharray:none;stroke-opacity:1"
         d="m 70.218772,169.61026 c 0,0 -4.664152,-30.75102 27.088354,-34.71147 h 12.076804 c 0,0 29.25062,0.17881 27.36115,34.63517"
         id="path950" /><path
         style="fill:#4d4d4d;fill-opacity:0;stroke:#000000;stroke-width:1;stroke-dasharray:none;stroke-opacity:1"
         d="m 76.682388,130.79043 c 0,0 -1.211172,0.27179 -1.169817,6.90577"
         id="path952" /><path
         style="fill:#4d4d4d;fill-opacity:0;stroke:#000000;stroke-width:1;stroke-dasharray:none;stroke-opacity:1"
         d="m 131.59227,140.72328 c -0.15883,-10.29488 -1.53243,-9.93134 -1.53243,-9.93134 H 76.663943"
         id="path954" /><path
         style="fill:#4d4d4d;fill-opacity:0;stroke:#000000;stroke-width:0.809026;stroke-dasharray:none;stroke-opacity:1"
         d="M 78.113043,130.79183 77.632265,78.868657"
         id="path1021"
         sodipodi:nodetypes="cc" /><path
         style="fill:#4d4d4d;fill-opacity:0;stroke:#000000;stroke-width:0.809026;stroke-dasharray:none;stroke-opacity:1"
         d="m 129.0469,130.75867 0.13375,-51.858309"
         id="path1023"
         sodipodi:nodetypes="cc" /><path
         style="fill:#4d4d4d;fill-opacity:0;stroke:#000000;stroke-width:1;stroke-dasharray:none;stroke-opacity:1"
         d="m 65.682853,172.54171 c -0.09887,0 -2.6801,0 -2.6801,0 0,0 -1.799021,-17.97505 0,-22.60627 h 2.816161"
         id="path1025" /><path
         style="fill:#666666;fill-opacity:0;stroke:#000000;stroke-width:1;stroke-dasharray:none;stroke-opacity:1"
         d="m 141.26137,172.51981 h 2.54116 c 0,0 1.59996,-14.34702 0.061,-22.48407 H 141.16"
         id="path1123" /></g></g></svg>
